<svg width="852" height="1505" viewBox="0 0 852 1505" fill="none" xmlns="http://www.w3.org/2000/svg">

<style>
.cls-1,.cls-2 {
    fill:none;
    stroke-miterlimit:10;
    <!-- stroke-width:5px; -->
    stroke-dasharray:6000;
    stroke-dashoffset:6000; 
    animation: dash 10s linear forwards;
}

.cls-1{stroke:#8012e0;}.cls-2{stroke:#0ce5cb;}

@keyframes dash {
    to {
        stroke-dashoffset: 0;
    }
}

</style>

<mask id="mask0" mask-type="alpha" maskUnits="userSpaceOnUse" x="-2" y="-1" width="855" height="1506">
<g opacity="0.15">
<path class="cls-1" d="M366.128 166.412L245.21 0H186.329C186.329 17.7405 171.962 32.2159 154.113 32.2159C136.264 32.2159 122.006 17.7405 122.006 0H2.39369L244.775 333.587L0.543457 669.677H122.006C122.006 651.936 136.373 637.461 154.222 637.461C172.071 637.461 186.438 651.827 186.438 669.677H243.36L366.128 500.652L487.591 333.587L366.128 166.412Z" stroke="#688E93" stroke-width="2" stroke-miterlimit="10"/>
<path class="cls-1" d="M365.694 499.999L244.775 333.587H185.894C185.894 351.327 171.528 365.803 153.678 365.803C135.829 365.803 121.463 351.436 121.463 333.587H1.95907L244.34 667.174L0 1003.26H121.463C121.463 985.523 135.829 971.048 153.678 971.048C171.528 971.048 185.894 985.414 185.894 1003.26H242.816L365.694 834.239L487.156 667.174L365.694 499.999Z" stroke="#688E93" stroke-width="2" stroke-miterlimit="10"/>
<path class="cls-1" d="M729.428 666.411L608.509 499.999H549.628C549.628 517.74 535.262 532.215 517.412 532.215C499.563 532.215 485.197 517.848 485.197 499.999H365.693L608.074 833.586L363.843 1169.78H485.305C485.305 1152.04 499.672 1137.57 517.521 1137.57C535.371 1137.57 549.737 1151.94 549.737 1169.78H606.659L729.537 1000.76L850.999 833.695L729.428 666.411Z" stroke="#688E93" stroke-width="2" stroke-miterlimit="10"/>
<path class="cls-1" d="M728.993 999.998L608.075 833.586H549.194C549.194 851.326 534.827 865.802 516.978 865.802C499.238 865.802 484.762 851.435 484.762 833.586H365.15L607.531 1167.17L363.3 1503.37H484.762C484.762 1485.63 499.129 1471.16 516.978 1471.16C534.719 1471.16 549.194 1485.52 549.194 1503.37H606.116L728.993 1334.35L850.456 1167.28L728.993 999.998Z" stroke="#688E93" stroke-width="2" stroke-miterlimit="10"/>
</g>
</mask>
<g mask="url(#mask0)">
<rect width="852" height="1505" fill="#C4C4C4"/>
</g>
</svg>
